<svg width="417" height="384" viewBox="0 0 417 384" fill="none" xmlns="http://www.w3.org/2000/svg">
<g clip-path="url(#clip0_204_2)">
<path d="M78.3301 138.395L37.9706 125.558L36.6892 381.509H83.3438L78.33 370.309C100.892 289.441 78.3301 138.395 78.3301 138.395Z" fill="#00000A"/>
<path d="M66.6802 295.746C66.6802 235.798 54.5038 187.2 39.4835 187.2C38.8677 187.204 38.255 187.288 37.6607 187.449L36.6892 381.509H56.1537C62.5583 361.65 66.6802 330.621 66.6802 295.746Z" fill="#27272A"/>
<path d="M65.024 141.524C65.024 141.524 74.6603 298.729 47.4435 373.16L53.1287 381.509H4.72042C4.72042 381.509 0 189.008 0 145.85L65.024 141.524Z" fill="#00000A"/>
<path d="M54.7443 19.893V40.3233L29.4231 46.5438V12.0664L54.7443 5.84595V19.893Z" fill="#A1A1A9"/>
<path d="M37.9705 30.5852C37.9705 30.5852 44.1363 28.5575 46.1651 31.6588C46.1651 31.6588 48.7379 28.7737 52.0524 31.1022" stroke="#27272A" stroke-linecap="round" stroke-linejoin="round"/>
<path d="M40.4405 26.9613C40.8144 26.9613 41.1175 26.6584 41.1175 26.2846C41.1175 25.9109 40.8144 25.6079 40.4405 25.6079C40.0665 25.6079 39.7634 25.9109 39.7634 26.2846C39.7634 26.6584 40.0665 26.9613 40.4405 26.9613Z" fill="#282447"/>
<path d="M50.8391 26.9613C51.213 26.9613 51.5161 26.6584 51.5161 26.2846C51.5161 25.9109 51.213 25.6079 50.8391 25.6079C50.4652 25.6079 50.1621 25.9109 50.1621 26.2846C50.1621 26.6584 50.4652 26.9613 50.8391 26.9613Z" fill="#282447"/>
<path d="M47.7886 30.3215V19.8928H53.0156" stroke="#282447"/>
<path d="M39.165 19.8928H44.3919" stroke="#282447"/>
<path d="M31.0907 25.2363V28.8578C29.1362 28.8578 27.5518 27.2741 27.5518 25.3206C27.5518 25.2121 27.5566 25.1048 27.5663 24.9987C27.7646 22.8022 31.0907 23.0309 31.0907 25.2363Z" fill="#A1A1A9"/>
<path d="M31.0907 28.8579C29.1362 28.8579 27.5518 27.2743 27.5518 25.3208" stroke="#27272A"/>
<path d="M44.7123 32.8925C43.6067 32.8925 42.7104 31.9967 42.7104 30.8916" stroke="#27272A" stroke-linecap="round" stroke-linejoin="round"/>
<path d="M36.6891 44.7585L29.4229 46.5436" stroke="#27272A"/>
<path d="M47.7884 30.3298L45.5022 30.8914" stroke="#27272A" stroke-linecap="round"/>
<path d="M78.33 83.1286V138.395L0 157.638V96.0862C4.90802e-06 74.261 14.9071 55.2556 36.1117 50.0464C46.2807 47.5483 57.0343 49.861 65.2753 56.3187C73.5163 62.7763 78.33 72.662 78.33 83.1286Z" fill="#A1A1A9"/>
<path d="M32.3354 26.2847C32.3354 26.2847 28.5166 38.8157 37.4272 45.3364C45.7234 51.4074 58.8006 47.853 55.7062 33.6522C55.0637 30.6886 54.7412 27.6648 54.7441 24.6325V23.7864" stroke="#27272A" stroke-linecap="round" stroke-linejoin="round"/>
<path d="M29.3213 23.4645C29.3213 23.4645 20.8978 8.04575 33.8685 5.26765C33.8685 5.26765 39.1428 -1.31746 46.6454 1.8722C54.1481 5.06186 57.751 2.82294 57.854 5.84591C57.9569 8.86888 58.3257 13.9106 54.7442 16.4829" stroke="#27272A" stroke-linecap="round" stroke-linejoin="round"/>
<path d="M34.563 23.4623L36.689 14.8007C36.689 14.8007 52.1713 15.0393 54.7441 10.8247" stroke="#27272A" stroke-linecap="round" stroke-linejoin="round"/>
<path d="M65.0239 141.524C65.0239 141.524 74.6603 298.729 47.4434 373.16L53.1286 381.509" stroke="#27272A"/>
<path d="M16.0526 60.532C16.0526 60.532 2.89882 112.451 18.8106 131.854C34.7224 151.257 109.189 139.806 130.829 118.813C130.829 118.813 138.467 116.905 140.058 113.088C140.058 113.088 147.377 118.495 147.059 114.996C146.741 111.497 144.195 100.594 131.147 103.342C118.1 106.09 54.7443 107.362 54.7443 107.362L56.1707 80.0072" stroke="#27272A"/>
<path d="M74.719 67.823C74.719 67.823 84.2893 86.3635 83.0551 106.564" stroke="#27272A"/>
<path d="M79.9502 150.379C79.9502 150.379 105.448 160.501 116.229 128.365" stroke="#27272A"/>
<path d="M91.7053 106.24C91.7053 106.24 118.722 92.2926 122.873 98.1378L127.025 103.983" stroke="#27272A"/>
<path d="M344.195 1H170.336V111.961L114.433 167.837V381.509H91.7051" stroke="#27272A"/>
<path d="M120.603 382.702H417" stroke="#282447" stroke-width="1.5"/>
<path d="M381.945 380.371C381.945 380.371 387.052 371.339 374.088 369.376C366.384 368.186 358.501 369.137 351.302 372.125C351.302 372.125 360.338 361.13 346.195 356.418C332.052 351.706 317.516 362.701 317.516 362.701C317.516 362.701 331.659 336.392 320.659 334.428C309.659 332.465 303.766 343.852 303.766 343.852C303.766 343.852 304.944 311.261 282.159 310.475C259.373 309.69 261.73 352.098 261.73 352.098C261.73 352.098 251.908 333.25 235.408 332.465C218.908 331.68 227.158 364.037 227.158 364.037C227.158 364.037 224.015 356.418 213.015 355.632C202.015 354.847 202.801 364.062 202.801 364.062C202.801 364.062 188.658 344.245 172.944 345.423C157.229 346.601 163.908 366.234 163.908 366.234C147.801 365.056 144.265 382.702 144.265 382.702H393.338L381.945 380.371Z" fill="#27272A"/>
<path d="M368.857 189.206H177.879V300.678H368.857V189.206Z" fill="#27272A"/>
<path d="M344.194 164.555H153.216V276.027H344.194V164.555Z" fill="#A1A1A9"/>
<path d="M344.195 164.616V276.088L153.217 275.966" stroke="#282447" stroke-width="1.5"/>
<path d="M248.705 255.378C268.093 255.378 283.809 239.669 283.809 220.291C283.809 200.913 268.093 185.204 248.705 185.204C229.318 185.204 213.602 200.913 213.602 220.291C213.602 239.669 229.318 255.378 248.705 255.378Z" fill="#00000A"/>
<path d="M174.746 261.752C178.702 261.752 181.909 258.547 181.909 254.593C181.909 250.639 178.702 247.434 174.746 247.434C170.791 247.434 167.584 250.639 167.584 254.593C167.584 258.547 170.791 261.752 174.746 261.752Z" fill="#27272A"/>
<path d="M322.665 193.148C326.62 193.148 329.827 189.943 329.827 185.989C329.827 182.035 326.62 178.83 322.665 178.83C318.709 178.83 315.502 182.035 315.502 185.989C315.502 189.943 318.709 193.148 322.665 193.148Z" fill="#27272A"/>
<path d="M322.665 261.752C326.62 261.752 329.827 258.547 329.827 254.593C329.827 250.639 326.62 247.434 322.665 247.434C318.709 247.434 315.502 250.639 315.502 254.593C315.502 258.547 318.709 261.752 322.665 261.752Z" fill="#27272A"/>
<path d="M174.746 193.148C178.702 193.148 181.909 189.943 181.909 185.989C181.909 182.035 178.702 178.83 174.746 178.83C170.791 178.83 167.584 182.035 167.584 185.989C167.584 189.943 170.791 193.148 174.746 193.148Z" fill="#27272A"/>
<path d="M248.705 220.291C243.206 220.291 238.748 215.835 238.748 210.338C238.748 204.842 243.206 200.386 248.705 200.386C254.205 200.386 258.663 204.842 258.663 210.338" stroke="white"/>
<path d="M248.705 220.291C252.733 220.291 256.364 222.716 257.905 226.435C259.446 230.154 258.594 234.435 255.746 237.281C252.899 240.128 248.616 240.979 244.895 239.439C241.174 237.898 238.748 234.269 238.748 230.244" stroke="white"/>
<path d="M248.706 194.671V245.911" stroke="white"/>
</g>
<defs>
<clipPath id="clip0_204_2">
<rect width="417" height="384" fill="white"/>
</clipPath>
</defs>
</svg>
