<svg width="340" height="123" viewBox="0 0 340 123" fill="none" xmlns="http://www.w3.org/2000/svg">
<path d="M97.3543 92.53H99.4543V103.72C99.7943 102.8 100.424 101.93 101.344 101.11C102.264 100.29 103.304 99.88 104.464 99.88C108.524 99.88 110.554 102.26 110.554 107.02C110.554 112.42 107.934 115.12 102.694 115.12C101.154 115.12 99.3743 114.87 97.3543 114.37V92.53ZM104.434 100.12C103.194 100.12 102.074 100.66 101.074 101.74C100.074 102.8 99.5343 103.76 99.4543 104.62V114.19C100.674 114.65 101.744 114.88 102.664 114.88C106.524 114.88 108.454 112.25 108.454 106.99C108.454 102.41 107.114 100.12 104.434 100.12ZM115.722 120.37C115.082 121.79 114.292 122.5 113.352 122.5C112.932 122.5 112.442 122.43 111.882 122.29V122.05C112.342 122.17 112.752 122.23 113.112 122.23C114.132 122.23 114.912 121.61 115.452 120.37L117.972 115H117.942L112.362 100H114.462L119.112 112.51L123.702 103C123.942 102.58 124.062 102.08 124.062 101.5C124.062 100.92 123.902 100.48 123.582 100.18L123.762 100C123.842 100.04 123.942 100.16 124.062 100.36C124.202 100.56 124.282 100.74 124.302 100.9C124.342 101.06 124.362 101.21 124.362 101.35C124.362 101.89 124.242 102.44 124.002 103L118.242 115L115.722 120.37ZM147.557 95.26C145.737 94.56 144.017 94.21 142.397 94.21C140.797 94.21 139.547 94.55 138.647 95.23C137.747 95.91 137.297 96.85 137.297 98.05C137.297 99.51 138.057 100.64 139.577 101.44C140.257 101.78 140.997 102.1 141.797 102.4C142.617 102.68 143.437 103 144.257 103.36C145.077 103.72 145.827 104.13 146.507 104.59C147.187 105.05 147.737 105.69 148.157 106.51C148.577 107.31 148.787 108.34 148.787 109.6C148.787 110.84 148.437 111.9 147.737 112.78C147.037 113.66 146.187 114.26 145.187 114.58C144.207 114.88 143.057 115.03 141.737 115.03C139.277 115.03 137.177 114.42 135.437 113.2L135.587 112.96C136.247 113.48 137.097 113.91 138.137 114.25C139.197 114.57 140.277 114.73 141.377 114.73C142.997 114.73 144.377 114.36 145.517 113.62C146.677 112.86 147.257 111.75 147.257 110.29C147.257 108.69 146.497 107.44 144.977 106.54C144.297 106.14 143.547 105.77 142.727 105.43C141.927 105.09 141.117 104.74 140.297 104.38C139.477 104 138.727 103.58 138.047 103.12C136.527 102.12 135.767 100.7 135.767 98.86C135.767 97.4 136.257 96.22 137.237 95.32C138.217 94.4 139.687 93.94 141.647 93.94C143.627 93.94 145.637 94.28 147.677 94.96L147.557 95.26ZM153.066 107.68C153.066 110.16 153.496 111.98 154.356 113.14C155.236 114.3 156.386 114.88 157.806 114.88C159.806 114.88 161.586 114.58 163.146 113.98L163.236 114.19C161.636 114.81 159.826 115.12 157.806 115.12C155.806 115.12 154.176 114.52 152.916 113.32C151.656 112.12 151.026 110.27 151.026 107.77C151.026 105.27 151.686 103.33 153.006 101.95C154.326 100.57 156.006 99.88 158.046 99.88C159.686 99.88 161.066 100.37 162.186 101.35C163.306 102.33 163.866 103.78 163.866 105.7C163.866 105.8 163.866 105.9 163.866 106H153.156C153.096 106.54 153.066 107.1 153.066 107.68ZM161.826 105.76C161.806 103.84 161.436 102.42 160.716 101.5C159.996 100.58 159.066 100.12 157.926 100.12C156.786 100.12 155.766 100.62 154.866 101.62C153.986 102.62 153.426 104 153.186 105.76H161.826ZM165.847 108.04C165.847 105.44 166.477 103.43 167.737 102.01C168.997 100.59 170.887 99.88 173.407 99.88C175.267 99.88 177.157 100.21 179.077 100.87V115.36C179.057 120.12 176.977 122.5 172.837 122.5C170.557 122.5 168.607 121.76 166.987 120.28L167.197 120.1C168.917 121.54 170.797 122.26 172.837 122.26C175.597 122.26 176.977 119.96 176.977 115.36V112.39C176.597 113.09 175.967 113.71 175.087 114.25C174.207 114.79 173.167 115.06 171.967 115.06C167.887 114.96 165.847 112.62 165.847 108.04ZM171.997 114.82C173.337 114.82 174.487 114.46 175.447 113.74C176.407 113.02 176.917 112.31 176.977 111.61V101.02C175.537 100.42 174.317 100.12 173.317 100.12C171.537 100.12 170.197 100.82 169.297 102.22C168.397 103.6 167.947 105.54 167.947 108.04C167.947 112.56 169.297 114.82 171.997 114.82ZM193.709 115C192.349 115 191.419 114.74 190.919 114.22C190.459 113.78 190.229 113.4 190.229 113.08V112.45C189.249 114.23 187.679 115.12 185.519 115.12C182.999 115.12 181.569 113.98 181.229 111.7C181.189 111.46 181.169 111.22 181.169 110.98C181.169 110.72 181.209 110.44 181.289 110.14C181.369 109.84 181.599 109.51 181.979 109.15C182.739 108.43 184.409 107.99 186.989 107.83C187.629 107.77 188.219 107.74 188.759 107.74C189.299 107.74 189.789 107.76 190.229 107.8V102.82C190.189 102.8 190.189 102.71 190.229 102.55C190.269 102.37 190.229 102.15 190.109 101.89C190.009 101.61 189.869 101.34 189.689 101.08C189.509 100.82 189.189 100.6 188.729 100.42C188.269 100.22 187.669 100.12 186.929 100.12C186.189 100.12 185.319 100.26 184.319 100.54C183.339 100.8 182.619 101.06 182.159 101.32L182.039 101.11C183.819 100.29 185.629 99.88 187.469 99.88C189.529 99.88 190.889 100.25 191.549 100.99C192.069 101.57 192.329 102.18 192.329 102.82V112.87C192.329 113.45 192.439 113.9 192.659 114.22C192.899 114.52 193.139 114.68 193.379 114.7L193.709 114.76H194.639V115H193.709ZM185.999 114.88C187.059 114.88 188.009 114.52 188.849 113.8C189.709 113.06 190.169 112.35 190.229 111.67V108.04C189.689 108 189.139 107.98 188.579 107.98C188.039 107.98 187.499 108.01 186.959 108.07C185.439 108.25 184.449 108.59 183.989 109.09C183.529 109.59 183.299 110.28 183.299 111.16C183.299 111.32 183.309 111.5 183.329 111.7C183.509 113.82 184.399 114.88 185.999 114.88ZM196.726 100.24V100H197.356V97H199.456V100H204.046V100.24H199.456V111.16C199.456 112.46 199.596 113.4 199.876 113.98C200.176 114.56 200.786 114.85 201.706 114.85C202.646 114.85 203.596 114.66 204.556 114.28L204.646 114.52C203.646 114.9 202.496 115.09 201.196 115.09C199.916 115.09 198.956 114.83 198.316 114.31C197.676 113.77 197.356 112.71 197.356 111.13V100.24H196.726ZM209.047 115C208.227 115 207.597 114.82 207.157 114.46C206.737 114.1 206.517 113.74 206.497 113.38L206.467 112.87V100H208.567V112.87C208.567 113.45 208.677 113.9 208.897 114.22C209.137 114.52 209.367 114.68 209.587 114.7L209.947 114.76H210.877V115H209.047ZM206.647 96.64C206.407 96.4 206.287 96.1 206.287 95.74C206.287 95.38 206.407 95.08 206.647 94.84C206.887 94.58 207.187 94.45 207.547 94.45C207.907 94.45 208.207 94.58 208.447 94.84C208.707 95.08 208.837 95.38 208.837 95.74C208.837 96.1 208.707 96.4 208.447 96.64C208.207 96.88 207.907 97 207.547 97C207.187 97 206.887 96.88 206.647 96.64ZM233.017 115.12C229.277 115.12 226.507 114.06 224.707 111.94C224.067 111.18 223.547 110.17 223.147 108.91C222.747 107.65 222.547 106.12 222.547 104.32C222.547 102.52 222.837 100.91 223.417 99.49C224.017 98.05 224.827 96.94 225.847 96.16C227.827 94.7 230.217 93.97 233.017 93.97C233.817 93.97 234.597 94.04 235.357 94.18C236.117 94.3 236.687 94.43 237.067 94.57L237.607 94.78L237.517 95.08C236.157 94.54 234.657 94.27 233.017 94.27C230.897 94.27 229.127 94.96 227.707 96.34C226.627 97.36 225.867 98.86 225.427 100.84C225.167 101.96 225.037 103.33 225.037 104.95C225.037 106.57 225.267 108.07 225.727 109.45C226.187 110.81 226.707 111.82 227.287 112.48C227.887 113.14 228.607 113.67 229.447 114.07C230.287 114.45 230.957 114.67 231.457 114.73C231.957 114.79 232.557 114.82 233.257 114.82C233.977 114.82 234.787 114.75 235.687 114.61C236.587 114.47 237.267 114.34 237.727 114.22L238.417 114.01L238.507 114.31C236.987 114.85 235.157 115.12 233.017 115.12ZM247.287 115.12C245.187 115.12 243.477 114.52 242.157 113.32C240.837 112.12 240.177 110.27 240.177 107.77C240.177 105.27 240.857 103.33 242.217 101.95C243.597 100.57 245.337 99.88 247.437 99.88C249.557 99.88 251.277 100.48 252.597 101.68C253.917 102.88 254.577 104.73 254.577 107.23C254.577 109.73 253.887 111.67 252.507 113.05C251.147 114.43 249.407 115.12 247.287 115.12ZM247.497 100.12C245.977 100.12 244.717 100.8 243.717 102.16C242.717 103.5 242.217 105.38 242.217 107.8C242.217 110.2 242.677 111.98 243.597 113.14C244.517 114.3 245.737 114.88 247.257 114.88C248.777 114.88 250.037 114.21 251.037 112.87C252.037 111.51 252.537 109.63 252.537 107.23C252.537 104.81 252.077 103.02 251.157 101.86C250.237 100.7 249.017 100.12 247.497 100.12ZM274.468 103.45C274.468 102.23 274.308 101.37 273.988 100.87C273.668 100.37 273.058 100.12 272.158 100.12C270.958 100.12 269.888 100.62 268.948 101.62C268.028 102.62 267.568 103.52 267.568 104.32V115H265.468V103.45C265.468 102.23 265.308 101.37 264.988 100.87C264.668 100.37 263.988 100.12 262.948 100.12C261.908 100.12 260.918 100.6 259.978 101.56C259.058 102.52 258.558 103.41 258.478 104.23V115H256.378V100H258.478V103.39C258.798 102.53 259.388 101.73 260.248 100.99C261.108 100.25 262.068 99.88 263.128 99.88C264.188 99.88 265.028 99.98 265.648 100.18C266.288 100.36 266.738 100.65 266.998 101.05C267.258 101.45 267.418 101.8 267.478 102.1C267.538 102.4 267.568 102.82 267.568 103.36C267.888 102.5 268.468 101.71 269.308 100.99C270.148 100.25 271.048 99.88 272.008 99.88C272.968 99.88 273.738 99.96 274.318 100.12C274.898 100.28 275.328 100.46 275.608 100.66C275.908 100.86 276.128 101.15 276.268 101.53C276.428 101.91 276.518 102.22 276.538 102.46C276.558 102.7 276.568 103.04 276.568 103.48V112.87C276.568 113.45 276.678 113.9 276.898 114.22C277.138 114.52 277.378 114.68 277.618 114.7L277.948 114.76H278.878V115H277.048C276.228 115 275.598 114.82 275.158 114.46C274.738 114.1 274.518 113.74 274.498 113.38L274.468 112.87V103.45ZM280.086 100H282.186V103.72C282.526 102.8 283.156 101.93 284.076 101.11C284.996 100.29 286.036 99.88 287.196 99.88C291.256 99.88 293.286 102.26 293.286 107.02C293.286 112.42 290.666 115.12 285.426 115.12C284.486 115.12 283.406 114.9 282.186 114.46V122.5H280.086V100ZM287.166 100.12C285.926 100.12 284.806 100.66 283.806 101.74C282.806 102.8 282.266 103.76 282.186 104.62V114.19C283.406 114.65 284.476 114.88 285.396 114.88C289.256 114.88 291.186 112.25 291.186 106.99C291.186 102.41 289.846 100.12 287.166 100.12ZM308.084 115C306.724 115 305.794 114.74 305.294 114.22C304.834 113.78 304.604 113.4 304.604 113.08V112.45C303.624 114.23 302.054 115.12 299.894 115.12C297.374 115.12 295.944 113.98 295.604 111.7C295.564 111.46 295.544 111.22 295.544 110.98C295.544 110.72 295.584 110.44 295.664 110.14C295.744 109.84 295.974 109.51 296.354 109.15C297.114 108.43 298.784 107.99 301.364 107.83C302.004 107.77 302.594 107.74 303.134 107.74C303.674 107.74 304.164 107.76 304.604 107.8V102.82C304.564 102.8 304.564 102.71 304.604 102.55C304.644 102.37 304.604 102.15 304.484 101.89C304.384 101.61 304.244 101.34 304.064 101.08C303.884 100.82 303.564 100.6 303.104 100.42C302.644 100.22 302.044 100.12 301.304 100.12C300.564 100.12 299.694 100.26 298.694 100.54C297.714 100.8 296.994 101.06 296.534 101.32L296.414 101.11C298.194 100.29 300.004 99.88 301.844 99.88C303.904 99.88 305.264 100.25 305.924 100.99C306.444 101.57 306.704 102.18 306.704 102.82V112.87C306.704 113.45 306.814 113.9 307.034 114.22C307.274 114.52 307.514 114.68 307.754 114.7L308.084 114.76H309.014V115H308.084ZM300.374 114.88C301.434 114.88 302.384 114.52 303.224 113.8C304.084 113.06 304.544 112.35 304.604 111.67V108.04C304.064 108 303.514 107.98 302.954 107.98C302.414 107.98 301.874 108.01 301.334 108.07C299.814 108.25 298.824 108.59 298.364 109.09C297.904 109.59 297.674 110.28 297.674 111.16C297.674 111.32 297.684 111.5 297.704 111.7C297.884 113.82 298.774 114.88 300.374 114.88ZM323.115 115C322.295 115 321.665 114.82 321.225 114.46C320.805 114.1 320.585 113.74 320.565 113.38L320.535 112.87V103.45C320.535 101.87 320.125 100.86 319.305 100.42C318.885 100.22 318.365 100.12 317.745 100.12C316.465 100.12 315.315 100.63 314.295 101.65C313.275 102.65 312.765 103.55 312.765 104.35V115H310.665V100H312.765V103.42C313.105 102.56 313.735 101.76 314.655 101.02C315.575 100.26 316.585 99.88 317.685 99.88C318.785 99.88 319.675 99.99 320.355 100.21C321.055 100.41 321.565 100.7 321.885 101.08C322.385 101.7 322.635 102.5 322.635 103.48V112.87C322.635 113.45 322.745 113.9 322.965 114.22C323.205 114.52 323.445 114.68 323.685 114.7L324.015 114.76H324.945V115H323.115ZM330.146 120.37C329.506 121.79 328.716 122.5 327.776 122.5C327.356 122.5 326.866 122.43 326.306 122.29V122.05C326.766 122.17 327.176 122.23 327.536 122.23C328.556 122.23 329.336 121.61 329.876 120.37L332.396 115H332.366L326.786 100H328.886L333.536 112.51L338.126 103C338.366 102.58 338.486 102.08 338.486 101.5C338.486 100.92 338.326 100.48 338.006 100.18L338.186 100C338.266 100.04 338.366 100.16 338.486 100.36C338.626 100.56 338.706 100.74 338.726 100.9C338.766 101.06 338.786 101.21 338.786 101.35C338.786 101.89 338.666 102.44 338.426 103L332.666 115L330.146 120.37Z" fill="#00000A"/>
<path d="M9.69961 20.3V25H17.5996V25.8H9.69961V75H2.69961V25.8H0.599609V25H2.69961V20.3C2.69961 13.0333 4.26628 7.86666 7.39961 4.8C10.5329 1.66667 15.5996 0.0666638 22.5996 -5.96046e-06V0.799996C17.9996 0.866661 14.6996 2.43333 12.6996 5.49999C10.6996 8.5 9.69961 13.4333 9.69961 20.3ZM34.8348 75C32.1014 75 30.0014 74.4 28.5348 73.2C27.1348 72 26.4014 70.8 26.3348 69.6L26.2348 67.9V25H33.2348V67.9C33.2348 69.8333 33.6014 71.3333 34.3348 72.4C35.1348 73.4 35.9014 73.9333 36.6348 74L37.8348 74.2H40.9348V75H34.8348ZM26.8348 13.8C26.0348 13 25.6348 12 25.6348 10.8C25.6348 9.6 26.0348 8.6 26.8348 7.79999C27.6348 6.93333 28.6348 6.49999 29.8348 6.49999C31.0348 6.49999 32.0348 6.93333 32.8348 7.79999C33.7014 8.6 34.1348 9.6 34.1348 10.8C34.1348 12 33.7014 13 32.8348 13.8C32.0348 14.6 31.0348 15 29.8348 15C28.6348 15 27.6348 14.6 26.8348 13.8ZM88.498 75C85.7647 75 83.6647 74.4 82.198 73.2C80.798 72 80.0647 70.8 79.998 69.6L79.898 67.9V36.5C79.898 31.2333 78.5314 27.8667 75.798 26.4C74.398 25.7333 72.6647 25.4 70.598 25.4C66.3314 25.4 62.498 27.1 59.098 30.5C55.698 33.8333 53.998 36.8333 53.998 39.5V75H46.998V25H53.998V36.4C55.1314 33.5333 57.2314 30.8667 60.298 28.4C63.3647 25.8667 66.7314 24.6 70.398 24.6C74.0647 24.6 77.0314 24.9667 79.298 25.7C81.6314 26.3667 83.3314 27.3333 84.3981 28.6C86.0647 30.6667 86.898 33.3333 86.898 36.6V67.9C86.898 69.8333 87.2647 71.3333 87.998 72.4C88.798 73.4 89.598 73.9333 90.3981 74L91.498 74.2H94.5981V75H88.498ZM140.935 75C136.401 75 133.301 74.1333 131.635 72.4C130.101 70.9333 129.335 69.6667 129.335 68.6V66.5C126.068 72.4333 120.835 75.4 113.635 75.4C105.235 75.4 100.468 71.6 99.3348 64C99.2014 63.2 99.1348 62.4 99.1348 61.6C99.1348 60.7333 99.2681 59.8 99.5348 58.8C99.8014 57.8 100.568 56.7 101.835 55.5C104.368 53.1 109.935 51.6333 118.535 51.1C120.668 50.9 122.635 50.8 124.435 50.8C126.235 50.8 127.868 50.8667 129.335 51V34.4C129.201 34.3333 129.201 34.0333 129.335 33.5C129.468 32.9 129.335 32.1667 128.935 31.3C128.601 30.3667 128.135 29.4667 127.535 28.6C126.935 27.7333 125.868 27 124.335 26.4C122.801 25.7333 120.801 25.4 118.335 25.4C115.868 25.4 112.968 25.8667 109.635 26.8C106.368 27.6667 103.968 28.5333 102.435 29.4L102.035 28.7C107.968 25.9667 114.001 24.6 120.135 24.6C127.001 24.6 131.535 25.8333 133.735 28.3C135.468 30.2333 136.335 32.2667 136.335 34.4V67.9C136.335 69.8333 136.701 71.3333 137.435 72.4C138.235 73.4 139.035 73.9333 139.835 74L140.935 74.2H144.035V75H140.935ZM115.235 74.6C118.768 74.6 121.935 73.4 124.735 71C127.601 68.5333 129.135 66.1667 129.335 63.9V51.8C127.535 51.6667 125.701 51.6 123.835 51.6C122.035 51.6 120.235 51.7 118.435 51.9C113.368 52.5 110.068 53.6333 108.535 55.3C107.001 56.9667 106.235 59.2667 106.235 62.2C106.235 62.7333 106.268 63.3333 106.335 64C106.935 71.0667 109.901 74.6 115.235 74.6ZM191.037 75C188.304 75 186.204 74.4 184.737 73.2C183.337 72 182.604 70.8 182.537 69.6L182.437 67.9V36.5C182.437 31.2333 181.07 27.8667 178.337 26.4C176.937 25.7333 175.204 25.4 173.137 25.4C168.87 25.4 165.037 27.1 161.637 30.5C158.237 33.8333 156.537 36.8333 156.537 39.5V75H149.537V25H156.537V36.4C157.67 33.5333 159.77 30.8667 162.837 28.4C165.904 25.8667 169.27 24.6 172.937 24.6C176.604 24.6 179.57 24.9667 181.837 25.7C184.17 26.3667 185.87 27.3333 186.937 28.6C188.604 30.6667 189.437 33.3333 189.437 36.6V67.9C189.437 69.8333 189.804 71.3333 190.537 72.4C191.337 73.4 192.137 73.9333 192.937 74L194.037 74.2H197.137V75H191.037ZM224.597 25.4C219.864 25.4 215.897 27.6667 212.697 32.2C209.564 36.7333 207.997 43 207.997 51C207.997 59 209.431 64.9333 212.297 68.8C215.231 72.6667 219.064 74.6 223.797 74.6C229.731 74.6 234.997 73.6 239.597 71.6L239.897 72.3C235.164 74.3667 229.631 75.4 223.297 75.4C216.964 75.4 211.697 73.4 207.497 69.4C203.297 65.4 201.197 59.2333 201.197 50.9C201.197 42.5667 203.397 36.1 207.797 31.5C212.197 26.9 217.797 24.6 224.597 24.6C228.397 24.6 231.897 25.4667 235.097 27.2C238.364 28.9333 240.764 31.5667 242.297 35.1H235.897C234.897 31.8333 233.364 29.4 231.297 27.8C229.297 26.2 227.064 25.4 224.597 25.4ZM259.542 75C256.808 75 254.708 74.4 253.242 73.2C251.842 72 251.108 70.8 251.042 69.6L250.942 67.9V25H257.942V67.9C257.942 69.8333 258.308 71.3333 259.042 72.4C259.842 73.4 260.608 73.9333 261.342 74L262.542 74.2H265.642V75H259.542ZM251.542 13.8C250.742 13 250.342 12 250.342 10.8C250.342 9.6 250.742 8.6 251.542 7.79999C252.342 6.93333 253.342 6.49999 254.542 6.49999C255.742 6.49999 256.742 6.93333 257.542 7.79999C258.408 8.6 258.842 9.6 258.842 10.8C258.842 12 258.408 13 257.542 13.8C256.742 14.6 255.742 15 254.542 15C253.342 15 252.342 14.6 251.542 13.8ZM313.005 75C308.472 75 305.372 74.1333 303.705 72.4C302.172 70.9333 301.405 69.6667 301.405 68.6V66.5C298.138 72.4333 292.905 75.4 285.705 75.4C277.305 75.4 272.538 71.6 271.405 64C271.272 63.2 271.205 62.4 271.205 61.6C271.205 60.7333 271.338 59.8 271.605 58.8C271.872 57.8 272.638 56.7 273.905 55.5C276.438 53.1 282.005 51.6333 290.605 51.1C292.738 50.9 294.705 50.8 296.505 50.8C298.305 50.8 299.938 50.8667 301.405 51V34.4C301.272 34.3333 301.272 34.0333 301.405 33.5C301.538 32.9 301.405 32.1667 301.005 31.3C300.672 30.3667 300.205 29.4667 299.605 28.6C299.005 27.7333 297.938 27 296.405 26.4C294.872 25.7333 292.872 25.4 290.405 25.4C287.938 25.4 285.038 25.8667 281.705 26.8C278.438 27.6667 276.038 28.5333 274.505 29.4L274.105 28.7C280.038 25.9667 286.072 24.6 292.205 24.6C299.072 24.6 303.605 25.8333 305.805 28.3C307.538 30.2333 308.405 32.2667 308.405 34.4V67.9C308.405 69.8333 308.772 71.3333 309.505 72.4C310.305 73.4 311.105 73.9333 311.905 74L313.005 74.2H316.105V75H313.005ZM287.305 74.6C290.838 74.6 294.005 73.4 296.805 71C299.672 68.5333 301.205 66.1667 301.405 63.9V51.8C299.605 51.6667 297.772 51.6 295.905 51.6C294.105 51.6 292.305 51.7 290.505 51.9C285.438 52.5 282.138 53.6333 280.605 55.3C279.072 56.9667 278.305 59.2667 278.305 62.2C278.305 62.7333 278.338 63.3333 278.405 64C279.005 71.0667 281.972 74.6 287.305 74.6ZM336.261 75C330.394 75 326.694 73.4667 325.161 70.4C324.827 69.7333 324.661 69.1333 324.661 68.6V0.0999987H331.661V67.9C331.661 69.8333 332.027 71.3333 332.761 72.4C333.561 73.4 334.361 73.9333 335.161 74L336.261 74.2H339.361V75H336.261Z" fill="#00000A"/>
</svg>
